<?xml version="1.0" encoding="UTF-8" standalone="no"?>
<!DOCTYPE svg PUBLIC "-//W3C//DTD SVG 1.1//EN"
 "http://www.w3.org/Graphics/SVG/1.1/DTD/svg11.dtd">
<!-- Generated by graphviz version 2.38.0 (20140413.2041)
 -->
<!-- Title: TableEditor Pages: 1 -->
<svg width="697pt" height="598pt"
 viewBox="0.00 0.00 696.82 598.00" xmlns="http://www.w3.org/2000/svg" xmlns:xlink="http://www.w3.org/1999/xlink">
<g id="graph0" class="graph" transform="scale(1 1) rotate(0) translate(4 594)">
<title>TableEditor</title>
<!-- zero -->
<g id="node1" class="node"><title>zero</title>
<ellipse fill="none" stroke="black" cx="422.419" cy="-568" rx="18" ry="18"/>
<ellipse fill="none" stroke="black" cx="422.419" cy="-568" rx="22" ry="22"/>
<text text-anchor="middle" x="422.419" y="-563.8" font-family="Times,serif" font-size="14.00">0</text>
</g>
<!-- one -->
<g id="node2" class="node"><title>one</title>
<ellipse fill="none" stroke="black" cx="241.419" cy="-478" rx="27" ry="18"/>
<text text-anchor="middle" x="241.419" y="-473.8" font-family="Times,serif" font-size="14.00">1</text>
</g>
<!-- zero&#45;&gt;one -->
<g id="edge1" class="edge"><title>zero&#45;&gt;one</title>
<path fill="none" stroke="black" d="M402.705,-557.415C371.164,-542.08 309.128,-511.919 271.861,-493.8"/>
<polygon fill="black" stroke="black" points="273.027,-490.475 262.503,-489.25 269.966,-496.771 273.027,-490.475"/>
<text text-anchor="middle" x="352.975" y="-516.8" font-family="Times,serif" font-size="14.00">down</text>
</g>
<!-- one&#45;&gt;one -->
<g id="edge4" class="edge"><title>one&#45;&gt;one</title>
<path fill="none" stroke="black" d="M265.952,-485.752C276.927,-486.49 286.419,-483.906 286.419,-478 286.419,-474.032 282.135,-471.563 275.994,-470.594"/>
<polygon fill="black" stroke="black" points="276.067,-467.095 265.952,-470.248 275.825,-474.091 276.067,-467.095"/>
<text text-anchor="middle" x="307.997" y="-473.8" font-family="Times,serif" font-size="14.00">α move</text>
</g>
<!-- two -->
<g id="node3" class="node"><title>two</title>
<ellipse fill="none" stroke="black" cx="329.419" cy="-392" rx="27" ry="18"/>
<text text-anchor="middle" x="329.419" y="-387.8" font-family="Times,serif" font-size="14.00">2</text>
</g>
<!-- one&#45;&gt;two -->
<g id="edge2" class="edge"><title>one&#45;&gt;two</title>
<path fill="none" stroke="black" d="M252.734,-461.115C260.276,-451.069 270.734,-438.117 281.419,-428 287.633,-422.117 294.861,-416.371 301.793,-411.291"/>
<polygon fill="black" stroke="black" points="304.18,-413.889 310.317,-405.252 300.133,-408.177 304.18,-413.889"/>
<text text-anchor="middle" x="288.419" y="-430.8" font-family="Times,serif" font-size="14.00">up</text>
</g>
<!-- three -->
<g id="node4" class="node"><title>three</title>
<ellipse fill="none" stroke="black" cx="145.419" cy="-392" rx="27" ry="18"/>
<text text-anchor="middle" x="145.419" y="-387.8" font-family="Times,serif" font-size="14.00">3</text>
</g>
<!-- one&#45;&gt;three -->
<g id="edge3" class="edge"><title>one&#45;&gt;three</title>
<path fill="none" stroke="black" d="M217.371,-469.532C202.407,-463.903 183.584,-454.919 170.478,-442 163.924,-435.54 158.755,-427.005 154.856,-418.871"/>
<polygon fill="black" stroke="black" points="158.048,-417.434 150.856,-409.655 151.627,-420.222 158.048,-417.434"/>
<text text-anchor="middle" x="186.39" y="-430.8" font-family="Times,serif" font-size="14.00">α out</text>
</g>
<!-- two&#45;&gt;zero -->
<g id="edge6" class="edge"><title>two&#45;&gt;zero</title>
<path fill="none" stroke="black" d="M343.555,-407.597C348.936,-413.614 354.862,-420.845 359.419,-428 381.954,-463.384 400.713,-508.169 411.747,-537.192"/>
<polygon fill="black" stroke="black" points="408.542,-538.617 415.321,-546.759 415.1,-536.167 408.542,-538.617"/>
<text text-anchor="middle" x="436.117" y="-473.8" font-family="Times,serif" font-size="14.00">down off table</text>
</g>
<!-- two&#45;&gt;one -->
<g id="edge5" class="edge"><title>two&#45;&gt;one</title>
<path fill="none" stroke="black" d="M320.403,-409.2C314.232,-419.372 305.384,-432.345 295.419,-442 288.095,-449.097 279.128,-455.583 270.62,-460.992"/>
<polygon fill="black" stroke="black" points="268.742,-458.037 262.01,-466.218 272.374,-464.021 268.742,-458.037"/>
<text text-anchor="middle" x="331.332" y="-430.8" font-family="Times,serif" font-size="14.00">down !α</text>
</g>
<!-- two&#45;&gt;two -->
<g id="edge7" class="edge"><title>two&#45;&gt;two</title>
<path fill="none" stroke="black" d="M353.952,-399.752C364.927,-400.49 374.419,-397.906 374.419,-392 374.419,-388.032 370.135,-385.563 363.994,-384.594"/>
<polygon fill="black" stroke="black" points="364.067,-381.095 353.952,-384.248 363.825,-388.091 364.067,-381.095"/>
<text text-anchor="middle" x="413.678" y="-387.8" font-family="Times,serif" font-size="14.00">delete, arrows</text>
</g>
<!-- four -->
<g id="node5" class="node"><title>four</title>
<ellipse fill="none" stroke="black" cx="190.419" cy="-306" rx="27" ry="18"/>
<text text-anchor="middle" x="190.419" y="-301.8" font-family="Times,serif" font-size="14.00">4</text>
</g>
<!-- two&#45;&gt;four -->
<g id="edge15" class="edge"><title>two&#45;&gt;four</title>
<path fill="none" stroke="black" d="M324.286,-374.3C320.214,-363.661 313.507,-350.354 303.419,-342 281.925,-324.199 251.409,-315.435 227.507,-311.129"/>
<polygon fill="black" stroke="black" points="227.81,-307.632 217.381,-309.495 226.695,-314.543 227.81,-307.632"/>
<text text-anchor="middle" x="350.86" y="-344.8" font-family="Times,serif" font-size="14.00">shift+arrows</text>
</g>
<!-- five -->
<g id="node6" class="node"><title>five</title>
<ellipse fill="none" stroke="black" cx="454.419" cy="-220" rx="27" ry="18"/>
<text text-anchor="middle" x="454.419" y="-215.8" font-family="Times,serif" font-size="14.00">5</text>
</g>
<!-- two&#45;&gt;five -->
<g id="edge16" class="edge"><title>two&#45;&gt;five</title>
<path fill="none" stroke="black" d="M356.449,-391.94C385.557,-391.314 430.737,-385.258 453.419,-356 477.313,-325.18 470.571,-277.396 462.922,-247.718"/>
<polygon fill="black" stroke="black" points="466.28,-246.729 460.227,-238.033 459.536,-248.605 466.28,-246.729"/>
<text text-anchor="middle" x="487.309" y="-301.8" font-family="Times,serif" font-size="14.00">typing</text>
</g>
<!-- six -->
<g id="node7" class="node"><title>six</title>
<ellipse fill="none" stroke="black" cx="414.419" cy="-306" rx="27" ry="18"/>
<text text-anchor="middle" x="414.419" y="-301.8" font-family="Times,serif" font-size="14.00">6</text>
</g>
<!-- two&#45;&gt;six -->
<g id="edge8" class="edge"><title>two&#45;&gt;six</title>
<path fill="none" stroke="black" d="M353.741,-383.637C368.213,-378.129 385.933,-369.238 397.419,-356 402.836,-349.758 406.554,-341.693 409.094,-333.916"/>
<polygon fill="black" stroke="black" points="412.535,-334.603 411.801,-324.033 405.784,-332.754 412.535,-334.603"/>
<text text-anchor="middle" x="428.001" y="-344.8" font-family="Times,serif" font-size="14.00">down α</text>
</g>
<!-- three&#45;&gt;one -->
<g id="edge9" class="edge"><title>three&#45;&gt;one</title>
<path fill="none" stroke="black" d="M135.392,-408.857C130.284,-419.141 126.476,-432.368 133.478,-442 149.494,-464.029 179.691,-472.473 204.083,-475.579"/>
<polygon fill="black" stroke="black" points="203.818,-479.07 214.122,-476.608 204.531,-472.107 203.818,-479.07"/>
<text text-anchor="middle" x="145.89" y="-430.8" font-family="Times,serif" font-size="14.00">α in</text>
</g>
<!-- three&#45;&gt;four -->
<g id="edge10" class="edge"><title>three&#45;&gt;four</title>
<path fill="none" stroke="black" d="M149.742,-374.068C152.6,-364.341 156.85,-352.091 162.419,-342 164.68,-337.904 167.424,-333.801 170.298,-329.921"/>
<polygon fill="black" stroke="black" points="173.207,-331.886 176.664,-321.871 167.716,-327.544 173.207,-331.886"/>
<text text-anchor="middle" x="169.419" y="-344.8" font-family="Times,serif" font-size="14.00">up</text>
</g>
<!-- four&#45;&gt;zero -->
<g id="edge12" class="edge"><title>four&#45;&gt;zero</title>
<path fill="none" stroke="black" d="M165.076,-312.456C145.058,-317.658 117.139,-326.967 96.4195,-342 -37.6512,-439.278 -1.17044,-402.121 28.024,-442 72.1658,-502.296 305.094,-547.154 390.765,-561.837"/>
<polygon fill="black" stroke="black" points="390.248,-565.299 400.692,-563.515 391.415,-558.397 390.248,-565.299"/>
<text text-anchor="middle" x="69.1172" y="-430.8" font-family="Times,serif" font-size="14.00">down off table</text>
</g>
<!-- four&#45;&gt;one -->
<g id="edge11" class="edge"><title>four&#45;&gt;one</title>
<path fill="none" stroke="black" d="M194.31,-323.904C199.149,-344.421 207.912,-379.997 217.212,-410 221.418,-423.567 226.722,-438.445 231.292,-450.728"/>
<polygon fill="black" stroke="black" points="228.117,-452.226 234.919,-460.349 234.667,-449.757 228.117,-452.226"/>
<text text-anchor="middle" x="255.523" y="-387.8" font-family="Times,serif" font-size="14.00">down in table</text>
</g>
<!-- four&#45;&gt;two -->
<g id="edge14" class="edge"><title>four&#45;&gt;two</title>
<path fill="none" stroke="black" d="M198.181,-323.342C204.087,-334.106 213.192,-347.696 224.902,-356 248.836,-372.974 260.705,-364.364 288.419,-374 291.549,-375.088 294.784,-376.29 298.001,-377.538"/>
<polygon fill="black" stroke="black" points="296.889,-380.863 307.473,-381.346 299.5,-374.368 296.889,-380.863"/>
<text text-anchor="middle" x="264.678" y="-344.8" font-family="Times,serif" font-size="14.00">arrows, delete</text>
</g>
<!-- four&#45;&gt;four -->
<g id="edge13" class="edge"><title>four&#45;&gt;four</title>
<path fill="none" stroke="black" d="M214.952,-313.752C225.927,-314.49 235.419,-311.906 235.419,-306 235.419,-302.032 231.135,-299.563 224.994,-298.594"/>
<polygon fill="black" stroke="black" points="225.067,-295.095 214.952,-298.248 224.825,-302.091 225.067,-295.095"/>
<text text-anchor="middle" x="270.86" y="-301.8" font-family="Times,serif" font-size="14.00">shift+arrows</text>
</g>
<!-- five&#45;&gt;zero -->
<g id="edge21" class="edge"><title>five&#45;&gt;zero</title>
<path fill="none" stroke="black" d="M481.07,-223.573C524.906,-229.434 607.419,-248.031 607.419,-305 607.419,-479 607.419,-479 607.419,-479 607.419,-545.881 507.6,-561.989 454.606,-565.828"/>
<polygon fill="black" stroke="black" points="454.134,-562.35 444.368,-566.459 454.564,-569.337 454.134,-562.35"/>
<text text-anchor="middle" x="648.117" y="-387.8" font-family="Times,serif" font-size="14.00">down off table</text>
</g>
<!-- five&#45;&gt;one -->
<g id="edge19" class="edge"><title>five&#45;&gt;one</title>
<path fill="none" stroke="black" d="M427.22,-221.731C372.107,-224.31 244.822,-235.919 154.419,-288 126.124,-304.301 116.483,-311.585 104.595,-342 88.035,-384.369 91.3047,-413.08 126.419,-442 148.55,-460.226 180.045,-468.97 204.481,-473.16"/>
<polygon fill="black" stroke="black" points="204.059,-476.636 214.473,-474.691 205.119,-469.716 204.059,-476.636"/>
<text text-anchor="middle" x="129.332" y="-344.8" font-family="Times,serif" font-size="14.00">down !α</text>
</g>
<!-- five&#45;&gt;five -->
<g id="edge20" class="edge"><title>five&#45;&gt;five</title>
<path fill="none" stroke="black" d="M478.952,-227.752C489.927,-228.49 499.419,-225.906 499.419,-220 499.419,-216.032 495.135,-213.563 488.994,-212.594"/>
<polygon fill="black" stroke="black" points="489.067,-209.095 478.952,-212.248 488.825,-216.091 489.067,-209.095"/>
<text text-anchor="middle" x="521.001" y="-215.8" font-family="Times,serif" font-size="14.00">down α</text>
</g>
<!-- six&#45;&gt;one -->
<g id="edge18" class="edge"><title>six&#45;&gt;one</title>
<path fill="none" stroke="black" d="M432.566,-319.479C440.04,-325.482 448.162,-333.272 453.419,-342 469.122,-368.066 479.431,-385.472 461.419,-410 439.506,-439.841 333.883,-461.609 277.337,-471.339"/>
<polygon fill="black" stroke="black" points="276.661,-467.904 267.38,-473.015 277.823,-474.806 276.661,-467.904"/>
<text text-anchor="middle" x="511.825" y="-387.8" font-family="Times,serif" font-size="14.00">any movement</text>
</g>
<!-- six&#45;&gt;five -->
<g id="edge17" class="edge"><title>six&#45;&gt;five</title>
<path fill="none" stroke="black" d="M422.322,-288.404C428.002,-276.477 435.766,-260.172 442.236,-246.586"/>
<polygon fill="black" stroke="black" points="445.53,-247.809 446.669,-237.275 439.21,-244.799 445.53,-247.809"/>
<text text-anchor="middle" x="444.419" y="-258.8" font-family="Times,serif" font-size="14.00">up</text>
</g>
<!-- Legend -->
<g id="node8" class="node"><title>Legend</title>
<text text-anchor="start" x="433.93" y="-167.8" font-family="Times,serif" font-size="14.00">Legend</text>
<text text-anchor="start" x="332.923" y="-147.8" font-family="Times,serif" font-size="14.00">State</text>
<text text-anchor="start" x="448.864" y="-147.8" font-family="Times,serif" font-size="14.00">Purpose</text>
<text text-anchor="start" x="343.419" y="-127.8" font-family="Times,serif" font-size="14.00">0</text>
<text text-anchor="start" x="421.849" y="-127.8" font-family="Times,serif" font-size="14.00">No focus on table</text>
<text text-anchor="start" x="343.419" y="-107.8" font-family="Times,serif" font-size="14.00">1</text>
<text text-anchor="start" x="389.528" y="-107.8" font-family="Times,serif" font-size="14.00">Selection start (α = start cell)</text>
<text text-anchor="start" x="343.419" y="-87.8" font-family="Times,serif" font-size="14.00">2</text>
<text text-anchor="start" x="414.469" y="-87.8" font-family="Times,serif" font-size="14.00">Cell focus (one cell)</text>
<text text-anchor="start" x="343.419" y="-67.8" font-family="Times,serif" font-size="14.00">3</text>
<text text-anchor="start" x="398.319" y="-67.8" font-family="Times,serif" font-size="14.00">Multiselection in progress</text>
<text text-anchor="start" x="343.419" y="-47.8" font-family="Times,serif" font-size="14.00">4</text>
<text text-anchor="start" x="366.194" y="-47.8" font-family="Times,serif" font-size="14.00">Multiple selections (β = other corner)</text>
<text text-anchor="start" x="343.419" y="-27.8" font-family="Times,serif" font-size="14.00">5</text>
<text text-anchor="start" x="446.338" y="-27.8" font-family="Times,serif" font-size="14.00">Edit Cell</text>
<text text-anchor="start" x="343.419" y="-7.8" font-family="Times,serif" font-size="14.00">6</text>
<text text-anchor="start" x="442.059" y="-7.8" font-family="Times,serif" font-size="14.00">Might edit</text>
<polygon fill="none" stroke="black" points="327.919,-0 327.919,-184 580.919,-184 580.919,-0 327.919,-0"/>
</g>
</g>
</svg>
